<mxfile host="app.diagrams.net" agent="Mozilla/5.0 (Macintosh; Intel Mac OS X 10_15_7) AppleWebKit/537.36 (KHTML, like Gecko) Chrome/130.0.0.0 Safari/537.36" version="24.8.3">
  <diagram name="Page-1" id="EGH5L03GGO7GQxpPWpwL">
    <mxGraphModel dx="1286" dy="742" grid="1" gridSize="10" guides="1" tooltips="1" connect="1" arrows="1" fold="1" page="1" pageScale="1" pageWidth="850" pageHeight="1100" math="0" shadow="0">
      <root>
        <mxCell id="0" />
        <mxCell id="1" parent="0" />
        <mxCell id="eW-Zvj83J4fUP64FngLl-2" value="&lt;font style=&quot;font-size: 16px;&quot;&gt;Client&lt;/font&gt;" style="rounded=1;whiteSpace=wrap;html=1;fillColor=#dae8fc;strokeColor=#6c8ebf;" vertex="1" parent="1">
          <mxGeometry x="60" y="220" width="120" height="60" as="geometry" />
        </mxCell>
        <mxCell id="eW-Zvj83J4fUP64FngLl-3" value="&lt;span style=&quot;font-size: 16px;&quot;&gt;Client&lt;/span&gt;" style="rounded=1;whiteSpace=wrap;html=1;fillColor=#dae8fc;strokeColor=#6c8ebf;" vertex="1" parent="1">
          <mxGeometry x="60" y="330" width="120" height="60" as="geometry" />
        </mxCell>
        <mxCell id="eW-Zvj83J4fUP64FngLl-4" value="&lt;span style=&quot;font-size: 16px;&quot;&gt;Client&lt;/span&gt;" style="rounded=1;whiteSpace=wrap;html=1;fillColor=#dae8fc;strokeColor=#6c8ebf;" vertex="1" parent="1">
          <mxGeometry x="60" y="440" width="120" height="60" as="geometry" />
        </mxCell>
        <mxCell id="eW-Zvj83J4fUP64FngLl-5" value="" style="rounded=1;whiteSpace=wrap;html=1;rotation=-90;fillColor=#ffe6cc;strokeColor=#d79b00;" vertex="1" parent="1">
          <mxGeometry x="280" y="310" width="280" height="100" as="geometry" />
        </mxCell>
        <mxCell id="eW-Zvj83J4fUP64FngLl-7" value="&lt;font style=&quot;font-size: 17px;&quot;&gt;Akamai&lt;/font&gt;&lt;div style=&quot;font-size: 17px;&quot;&gt;&lt;font style=&quot;font-size: 17px;&quot;&gt;Purging&lt;/font&gt;&lt;/div&gt;" style="text;html=1;align=center;verticalAlign=middle;whiteSpace=wrap;rounded=0;" vertex="1" parent="1">
          <mxGeometry x="390" y="345" width="60" height="30" as="geometry" />
        </mxCell>
        <mxCell id="eW-Zvj83J4fUP64FngLl-10" value="" style="rounded=1;whiteSpace=wrap;html=1;rotation=-90;fillColor=#e1d5e7;strokeColor=#9673a6;" vertex="1" parent="1">
          <mxGeometry x="130" y="310" width="280" height="100" as="geometry" />
        </mxCell>
        <mxCell id="eW-Zvj83J4fUP64FngLl-11" value="&lt;font style=&quot;font-size: 16px;&quot;&gt;Web server&lt;/font&gt;" style="text;html=1;align=center;verticalAlign=middle;whiteSpace=wrap;rounded=0;" vertex="1" parent="1">
          <mxGeometry x="240" y="345" width="60" height="30" as="geometry" />
        </mxCell>
        <mxCell id="eW-Zvj83J4fUP64FngLl-13" value="" style="rounded=1;whiteSpace=wrap;html=1;rotation=-90;fillColor=#dae8fc;strokeColor=#6c8ebf;" vertex="1" parent="1">
          <mxGeometry x="430" y="310" width="280" height="100" as="geometry" />
        </mxCell>
        <mxCell id="eW-Zvj83J4fUP64FngLl-14" value="&lt;font style=&quot;font-size: 16px;&quot;&gt;Application&lt;/font&gt;&lt;div style=&quot;font-size: 16px;&quot;&gt;Server&lt;/div&gt;" style="text;html=1;align=center;verticalAlign=middle;whiteSpace=wrap;rounded=0;" vertex="1" parent="1">
          <mxGeometry x="540" y="340" width="60" height="30" as="geometry" />
        </mxCell>
        <mxCell id="eW-Zvj83J4fUP64FngLl-15" value="" style="rounded=1;whiteSpace=wrap;html=1;rotation=-90;fillColor=#ffe6cc;strokeColor=#d79b00;" vertex="1" parent="1">
          <mxGeometry x="600" y="310" width="280" height="100" as="geometry" />
        </mxCell>
        <mxCell id="eW-Zvj83J4fUP64FngLl-17" value="&lt;font style=&quot;font-size: 16px;&quot;&gt;Database&lt;/font&gt;" style="text;html=1;align=center;verticalAlign=middle;whiteSpace=wrap;rounded=0;" vertex="1" parent="1">
          <mxGeometry x="710" y="340" width="60" height="30" as="geometry" />
        </mxCell>
        <mxCell id="eW-Zvj83J4fUP64FngLl-18" value="&lt;font style=&quot;font-size: 16px;&quot;&gt;Container Services&lt;/font&gt;" style="rounded=0;whiteSpace=wrap;html=1;fillColor=#e1d5e7;strokeColor=#9673a6;" vertex="1" parent="1">
          <mxGeometry x="520" y="550" width="270" height="130" as="geometry" />
        </mxCell>
        <mxCell id="eW-Zvj83J4fUP64FngLl-24" value="" style="endArrow=none;html=1;rounded=0;entryX=1.021;entryY=0.572;entryDx=0;entryDy=0;entryPerimeter=0;" edge="1" parent="1">
          <mxGeometry width="50" height="50" relative="1" as="geometry">
            <mxPoint x="200" y="254" as="sourcePoint" />
            <mxPoint x="179.51999999999998" y="254.32" as="targetPoint" />
          </mxGeometry>
        </mxCell>
        <mxCell id="eW-Zvj83J4fUP64FngLl-25" value="" style="endArrow=none;html=1;rounded=0;entryX=1.021;entryY=0.572;entryDx=0;entryDy=0;entryPerimeter=0;exitX=0.5;exitY=0;exitDx=0;exitDy=0;" edge="1" parent="1" source="eW-Zvj83J4fUP64FngLl-10">
          <mxGeometry width="50" height="50" relative="1" as="geometry">
            <mxPoint x="207.48" y="359.84000000000003" as="sourcePoint" />
            <mxPoint x="179.99999999999997" y="360.15999999999997" as="targetPoint" />
          </mxGeometry>
        </mxCell>
        <mxCell id="eW-Zvj83J4fUP64FngLl-26" value="" style="endArrow=none;html=1;rounded=0;entryX=1.021;entryY=0.572;entryDx=0;entryDy=0;entryPerimeter=0;" edge="1" parent="1">
          <mxGeometry width="50" height="50" relative="1" as="geometry">
            <mxPoint x="200" y="470" as="sourcePoint" />
            <mxPoint x="179.99999999999997" y="470.15999999999997" as="targetPoint" />
          </mxGeometry>
        </mxCell>
        <mxCell id="eW-Zvj83J4fUP64FngLl-27" value="" style="endArrow=none;html=1;rounded=0;" edge="1" parent="1">
          <mxGeometry width="50" height="50" relative="1" as="geometry">
            <mxPoint x="200" y="470" as="sourcePoint" />
            <mxPoint x="200" y="360" as="targetPoint" />
          </mxGeometry>
        </mxCell>
        <mxCell id="eW-Zvj83J4fUP64FngLl-28" value="" style="endArrow=none;html=1;rounded=0;" edge="1" parent="1">
          <mxGeometry width="50" height="50" relative="1" as="geometry">
            <mxPoint x="200" y="364" as="sourcePoint" />
            <mxPoint x="200" y="254" as="targetPoint" />
          </mxGeometry>
        </mxCell>
        <mxCell id="eW-Zvj83J4fUP64FngLl-29" value="" style="endArrow=none;html=1;rounded=0;exitX=0.5;exitY=1;exitDx=0;exitDy=0;entryX=0.5;entryY=0;entryDx=0;entryDy=0;" edge="1" parent="1" source="eW-Zvj83J4fUP64FngLl-10" target="eW-Zvj83J4fUP64FngLl-5">
          <mxGeometry width="50" height="50" relative="1" as="geometry">
            <mxPoint x="400" y="340" as="sourcePoint" />
            <mxPoint x="450" y="290" as="targetPoint" />
          </mxGeometry>
        </mxCell>
        <mxCell id="eW-Zvj83J4fUP64FngLl-30" value="" style="endArrow=none;html=1;rounded=0;entryX=0.5;entryY=0;entryDx=0;entryDy=0;exitX=0.5;exitY=1;exitDx=0;exitDy=0;" edge="1" parent="1" source="eW-Zvj83J4fUP64FngLl-5" target="eW-Zvj83J4fUP64FngLl-13">
          <mxGeometry width="50" height="50" relative="1" as="geometry">
            <mxPoint x="480" y="360" as="sourcePoint" />
            <mxPoint x="450" y="290" as="targetPoint" />
          </mxGeometry>
        </mxCell>
        <mxCell id="eW-Zvj83J4fUP64FngLl-31" value="" style="endArrow=none;html=1;rounded=0;entryX=0.5;entryY=0;entryDx=0;entryDy=0;exitX=0.5;exitY=1;exitDx=0;exitDy=0;" edge="1" parent="1" source="eW-Zvj83J4fUP64FngLl-13" target="eW-Zvj83J4fUP64FngLl-15">
          <mxGeometry width="50" height="50" relative="1" as="geometry">
            <mxPoint x="550" y="340" as="sourcePoint" />
            <mxPoint x="600" y="290" as="targetPoint" />
          </mxGeometry>
        </mxCell>
        <mxCell id="eW-Zvj83J4fUP64FngLl-32" value="" style="endArrow=none;html=1;rounded=0;entryX=0;entryY=0.5;entryDx=0;entryDy=0;" edge="1" parent="1">
          <mxGeometry width="50" height="50" relative="1" as="geometry">
            <mxPoint x="642" y="550" as="sourcePoint" />
            <mxPoint x="557" y="500" as="targetPoint" />
          </mxGeometry>
        </mxCell>
        <mxCell id="eW-Zvj83J4fUP64FngLl-33" value="" style="endArrow=none;html=1;rounded=0;entryX=0;entryY=0.5;entryDx=0;entryDy=0;exitX=0.45;exitY=0;exitDx=0;exitDy=0;exitPerimeter=0;" edge="1" parent="1" source="eW-Zvj83J4fUP64FngLl-18" target="eW-Zvj83J4fUP64FngLl-15">
          <mxGeometry width="50" height="50" relative="1" as="geometry">
            <mxPoint x="550" y="490" as="sourcePoint" />
            <mxPoint x="600" y="440" as="targetPoint" />
          </mxGeometry>
        </mxCell>
      </root>
    </mxGraphModel>
  </diagram>
</mxfile>
